<svg xmlns="http://www.w3.org/2000/svg" width="720" height="340">
<text x="360" y="20" text-anchor="middle" font-size="13">Detection accuracy % (seed-invariant; illustrative)</text>
<rect x="54.6" y="50.0" width="21.7" height="260.0" fill="#4472C4"/>
<text x="65.5" y="312" text-anchor="middle" font-size="10">norm_B1</text>
<text x="65.5" y="46.0" text-anchor="middle" font-size="9">100</text>
<rect x="85.7" y="310.0" width="21.7" height="0.0" fill="#4472C4"/>
<text x="96.5" y="312" text-anchor="middle" font-size="10">norm_B2</text>
<text x="96.5" y="306.0" text-anchor="middle" font-size="9">0</text>
<rect x="116.7" y="50.0" width="21.7" height="260.0" fill="#4472C4"/>
<text x="127.5" y="312" text-anchor="middle" font-size="10">norm_B3</text>
<text x="127.5" y="46.0" text-anchor="middle" font-size="9">100</text>
<rect x="147.7" y="310.0" width="21.7" height="0.0" fill="#4472C4"/>
<text x="158.5" y="312" text-anchor="middle" font-size="10">norm_B4</text>
<text x="158.5" y="306.0" text-anchor="middle" font-size="9">0</text>
<rect x="178.7" y="50.0" width="21.7" height="260.0" fill="#4472C4"/>
<text x="189.5" y="312" text-anchor="middle" font-size="10">norm_B5</text>
<text x="189.5" y="46.0" text-anchor="middle" font-size="9">100</text>
<rect x="209.7" y="180.0" width="21.7" height="130.0" fill="#4472C4"/>
<text x="220.5" y="312" text-anchor="middle" font-size="10">exit_B1</text>
<text x="220.5" y="176.0" text-anchor="middle" font-size="9">50</text>
<rect x="240.7" y="297.0" width="21.7" height="13.0" fill="#4472C4"/>
<text x="251.5" y="312" text-anchor="middle" font-size="10">exit_B2</text>
<text x="251.5" y="293.0" text-anchor="middle" font-size="9">5</text>
<rect x="271.6" y="180.0" width="21.7" height="130.0" fill="#4472C4"/>
<text x="282.5" y="312" text-anchor="middle" font-size="10">exit_B3</text>
<text x="282.5" y="176.0" text-anchor="middle" font-size="9">50</text>
<rect x="302.6" y="310.0" width="21.7" height="0.0" fill="#4472C4"/>
<text x="313.5" y="312" text-anchor="middle" font-size="10">exit_B4</text>
<text x="313.5" y="306.0" text-anchor="middle" font-size="9">0</text>
<rect x="333.6" y="180.0" width="21.7" height="130.0" fill="#4472C4"/>
<text x="344.5" y="312" text-anchor="middle" font-size="10">exit_B5</text>
<text x="344.5" y="176.0" text-anchor="middle" font-size="9">50</text>
<rect x="364.6" y="310.0" width="21.7" height="0.0" fill="#4472C4"/>
<text x="375.5" y="312" text-anchor="middle" font-size="10">mult_B1</text>
<text x="375.5" y="306.0" text-anchor="middle" font-size="9">0</text>
<rect x="395.6" y="310.0" width="21.7" height="0.0" fill="#4472C4"/>
<text x="406.5" y="312" text-anchor="middle" font-size="10">mult_B2</text>
<text x="406.5" y="306.0" text-anchor="middle" font-size="9">0</text>
<rect x="426.6" y="310.0" width="21.7" height="0.0" fill="#4472C4"/>
<text x="437.5" y="312" text-anchor="middle" font-size="10">mult_B3</text>
<text x="437.5" y="306.0" text-anchor="middle" font-size="9">0</text>
<rect x="457.6" y="310.0" width="21.7" height="0.0" fill="#4472C4"/>
<text x="468.5" y="312" text-anchor="middle" font-size="10">mult_B4</text>
<text x="468.5" y="306.0" text-anchor="middle" font-size="9">0</text>
<rect x="488.6" y="310.0" width="21.7" height="0.0" fill="#4472C4"/>
<text x="499.5" y="312" text-anchor="middle" font-size="10">mult_B5</text>
<text x="499.5" y="306.0" text-anchor="middle" font-size="9">0</text>
<rect x="519.6" y="310.0" width="21.7" height="0.0" fill="#4472C4"/>
<text x="530.5" y="312" text-anchor="middle" font-size="10">evac_B1</text>
<text x="530.5" y="306.0" text-anchor="middle" font-size="9">0</text>
<rect x="550.6" y="310.0" width="21.7" height="0.0" fill="#4472C4"/>
<text x="561.5" y="312" text-anchor="middle" font-size="10">evac_B2</text>
<text x="561.5" y="306.0" text-anchor="middle" font-size="9">0</text>
<rect x="581.6" y="310.0" width="21.7" height="0.0" fill="#4472C4"/>
<text x="592.5" y="312" text-anchor="middle" font-size="10">evac_B3</text>
<text x="592.5" y="306.0" text-anchor="middle" font-size="9">0</text>
<rect x="612.6" y="310.0" width="21.7" height="0.0" fill="#4472C4"/>
<text x="623.5" y="312" text-anchor="middle" font-size="10">evac_B4</text>
<text x="623.5" y="306.0" text-anchor="middle" font-size="9">0</text>
<rect x="643.6" y="310.0" width="21.7" height="0.0" fill="#4472C4"/>
<text x="654.5" y="312" text-anchor="middle" font-size="10">evac_B5</text>
<text x="654.5" y="306.0" text-anchor="middle" font-size="9">0</text>
<text x="12" y="180" font-size="11" transform="rotate(-90 12,180)">Accuracy %</text>
</svg>