<svg xmlns="http://www.w3.org/2000/svg" width="560" height="320">
<text x="280" y="20" text-anchor="middle" font-size="13">Latency vs seed (normal_flow)</text>
<polyline fill="none" stroke="#C00000" stroke-width="2" points="50.0,50.0 65.9,199.4 81.7,198.8 97.6,198.2 113.4,197.6 129.3,197.0 145.2,196.4 161.0,195.8 176.9,195.2 192.8,171.2 208.6,170.6 224.5,170.0 240.3,169.4 256.2,168.8 272.1,168.2 287.9,167.6 303.8,167.0 319.7,166.4 335.5,165.8 351.4,170.6 367.2,170.0 383.1,169.4 399.0,168.8 414.8,168.2 430.7,167.6 446.6,167.0 462.4,166.4 478.3,165.8 494.1,165.2 510.0,170.0"/>
<text x="480" y="30" font-size="11" fill="#C00000">B1</text>
<polyline fill="none" stroke="#4472C4" stroke-width="2" points="50.0,290.0 65.9,289.4 81.7,288.8 97.6,288.2 113.4,287.6 129.3,287.0 145.2,286.4 161.0,285.8 176.9,285.2 192.8,261.2 208.6,260.6 224.5,260.0 240.3,259.4 256.2,258.8 272.1,258.2 287.9,257.6 303.8,257.0 319.7,256.4 335.5,255.8 351.4,260.6 367.2,260.0 383.1,259.4 399.0,258.8 414.8,258.2 430.7,257.6 446.6,257.0 462.4,256.4 478.3,255.8 494.1,255.2 510.0,260.0"/>
<text x="480" y="44" font-size="11" fill="#4472C4">B5</text>
<text x="280" y="312" text-anchor="middle" font-size="11">Seed</text>
</svg>